<mxfile host="app.diagrams.net" modified="2022-11-05T11:32:38.235Z" agent="5.0 (Windows NT 10.0; Win64; x64) AppleWebKit/537.36 (KHTML, like Gecko) Chrome/107.0.0.0 Safari/537.36" etag="UYCGCDyzQcXWYkPwYBer" version="20.5.1" type="github">
  <diagram name="Page-1" id="9f46799a-70d6-7492-0946-bef42562c5a5">
    <mxGraphModel dx="1673" dy="879" grid="1" gridSize="10" guides="1" tooltips="1" connect="1" arrows="1" fold="1" page="1" pageScale="1" pageWidth="1100" pageHeight="850" background="none" math="0" shadow="0">
      <root>
        <mxCell id="0" />
        <mxCell id="1" parent="0" />
        <mxCell id="ako7mKqaWkMYn8Wf8Trb-88" style="edgeStyle=orthogonalEdgeStyle;rounded=0;orthogonalLoop=1;jettySize=auto;html=1;exitX=0.5;exitY=1;exitDx=0;exitDy=0;entryX=0.5;entryY=0;entryDx=0;entryDy=0;fontSize=13;" edge="1" parent="1" source="ako7mKqaWkMYn8Wf8Trb-12" target="ako7mKqaWkMYn8Wf8Trb-25">
          <mxGeometry relative="1" as="geometry" />
        </mxCell>
        <mxCell id="ako7mKqaWkMYn8Wf8Trb-92" style="edgeStyle=orthogonalEdgeStyle;rounded=0;orthogonalLoop=1;jettySize=auto;html=1;exitX=0.5;exitY=0;exitDx=0;exitDy=0;entryX=0.5;entryY=1;entryDx=0;entryDy=0;fontSize=13;" edge="1" parent="1" source="ako7mKqaWkMYn8Wf8Trb-12" target="ako7mKqaWkMYn8Wf8Trb-90">
          <mxGeometry relative="1" as="geometry" />
        </mxCell>
        <mxCell id="ako7mKqaWkMYn8Wf8Trb-12" value="&lt;span style=&quot;font-family: Verdana; font-weight: 700; font-size: 13px;&quot;&gt;EFI&lt;/span&gt;" style="rounded=0;whiteSpace=wrap;html=1;fillColor=#fad9d5;strokeColor=#ae4132;fontSize=13;" vertex="1" parent="1">
          <mxGeometry x="60" y="320" width="120" height="26" as="geometry" />
        </mxCell>
        <mxCell id="ako7mKqaWkMYn8Wf8Trb-13" value="ACPI" style="swimlane;html=1;fontStyle=1;align=center;verticalAlign=top;childLayout=stackLayout;horizontal=1;startSize=26;horizontalStack=0;resizeParent=1;resizeLast=0;collapsible=1;marginBottom=0;swimlaneFillColor=#ffffff;rounded=0;shadow=0;comic=0;labelBackgroundColor=none;strokeWidth=1;fillColor=#fff2cc;fontFamily=Verdana;fontSize=13;strokeColor=#d6b656;" vertex="1" parent="1">
          <mxGeometry x="220" y="305" width="120" height="56" as="geometry" />
        </mxCell>
        <mxCell id="ako7mKqaWkMYn8Wf8Trb-14" value="+ SSDT-Patch.aml" style="text;html=1;strokeColor=none;fillColor=none;align=left;verticalAlign=top;spacingLeft=4;spacingRight=4;whiteSpace=wrap;overflow=hidden;rotatable=0;points=[[0,0.5],[1,0.5]];portConstraint=eastwest;fontSize=13;" vertex="1" parent="ako7mKqaWkMYn8Wf8Trb-13">
          <mxGeometry y="26" width="120" height="22" as="geometry" />
        </mxCell>
        <mxCell id="ako7mKqaWkMYn8Wf8Trb-25" value="OC" style="swimlane;html=1;fontStyle=1;align=center;verticalAlign=top;childLayout=stackLayout;horizontal=1;startSize=26;horizontalStack=0;resizeParent=1;resizeLast=0;collapsible=1;marginBottom=0;swimlaneFillColor=#ffffff;rounded=0;shadow=0;comic=0;labelBackgroundColor=none;strokeWidth=1;fillColor=#e1d5e7;fontFamily=Verdana;fontSize=13;strokeColor=#9673a6;" vertex="1" parent="1">
          <mxGeometry x="60" y="400" width="120" height="82" as="geometry" />
        </mxCell>
        <mxCell id="ako7mKqaWkMYn8Wf8Trb-26" value="+ config.plist" style="text;html=1;strokeColor=none;fillColor=none;align=left;verticalAlign=top;spacingLeft=4;spacingRight=4;whiteSpace=wrap;overflow=hidden;rotatable=0;points=[[0,0.5],[1,0.5]];portConstraint=eastwest;fontSize=13;" vertex="1" parent="ako7mKqaWkMYn8Wf8Trb-25">
          <mxGeometry y="26" width="120" height="22" as="geometry" />
        </mxCell>
        <mxCell id="ako7mKqaWkMYn8Wf8Trb-27" value="+ OpenCore.efi" style="text;html=1;strokeColor=none;fillColor=none;align=left;verticalAlign=top;spacingLeft=4;spacingRight=4;whiteSpace=wrap;overflow=hidden;rotatable=0;points=[[0,0.5],[1,0.5]];portConstraint=eastwest;fontSize=13;" vertex="1" parent="ako7mKqaWkMYn8Wf8Trb-25">
          <mxGeometry y="48" width="120" height="26" as="geometry" />
        </mxCell>
        <mxCell id="ako7mKqaWkMYn8Wf8Trb-34" value="Drivers" style="swimlane;html=1;fontStyle=1;align=center;verticalAlign=top;childLayout=stackLayout;horizontal=1;startSize=26;horizontalStack=0;resizeParent=1;resizeLast=0;collapsible=1;marginBottom=0;swimlaneFillColor=#ffffff;rounded=0;shadow=0;comic=0;labelBackgroundColor=none;strokeWidth=1;fillColor=#bac8d3;fontFamily=Verdana;fontSize=13;strokeColor=#23445d;" vertex="1" parent="1">
          <mxGeometry x="380" y="305" width="120" height="108" as="geometry" />
        </mxCell>
        <mxCell id="ako7mKqaWkMYn8Wf8Trb-35" value="+ HfsPlus.efi" style="text;html=1;strokeColor=none;fillColor=none;align=left;verticalAlign=top;spacingLeft=4;spacingRight=4;whiteSpace=wrap;overflow=hidden;rotatable=0;points=[[0,0.5],[1,0.5]];portConstraint=eastwest;fontSize=13;" vertex="1" parent="ako7mKqaWkMYn8Wf8Trb-34">
          <mxGeometry y="26" width="120" height="22" as="geometry" />
        </mxCell>
        <mxCell id="ako7mKqaWkMYn8Wf8Trb-36" value="+ OpenRuntime.efi" style="text;html=1;strokeColor=none;fillColor=none;align=left;verticalAlign=top;spacingLeft=4;spacingRight=4;whiteSpace=wrap;overflow=hidden;rotatable=0;points=[[0,0.5],[1,0.5]];portConstraint=eastwest;fontSize=13;" vertex="1" parent="ako7mKqaWkMYn8Wf8Trb-34">
          <mxGeometry y="48" width="120" height="26" as="geometry" />
        </mxCell>
        <mxCell id="ako7mKqaWkMYn8Wf8Trb-37" value="+ OpenCanopy.efi" style="text;html=1;strokeColor=none;fillColor=none;align=left;verticalAlign=top;spacingLeft=4;spacingRight=4;whiteSpace=wrap;overflow=hidden;rotatable=0;points=[[0,0.5],[1,0.5]];portConstraint=eastwest;fontSize=13;" vertex="1" parent="ako7mKqaWkMYn8Wf8Trb-34">
          <mxGeometry y="74" width="120" height="26" as="geometry" />
        </mxCell>
        <mxCell id="ako7mKqaWkMYn8Wf8Trb-44" style="edgeStyle=orthogonalEdgeStyle;rounded=0;orthogonalLoop=1;jettySize=auto;html=1;exitX=1;exitY=0.5;exitDx=0;exitDy=0;entryX=0;entryY=0.5;entryDx=0;entryDy=0;fontSize=13;" edge="1" parent="1" source="ako7mKqaWkMYn8Wf8Trb-26" target="ako7mKqaWkMYn8Wf8Trb-14">
          <mxGeometry relative="1" as="geometry" />
        </mxCell>
        <mxCell id="ako7mKqaWkMYn8Wf8Trb-45" style="edgeStyle=orthogonalEdgeStyle;rounded=0;orthogonalLoop=1;jettySize=auto;html=1;exitX=1;exitY=0.5;exitDx=0;exitDy=0;entryX=0;entryY=0.5;entryDx=0;entryDy=0;fontSize=13;" edge="1" parent="1" source="ako7mKqaWkMYn8Wf8Trb-14" target="ako7mKqaWkMYn8Wf8Trb-35">
          <mxGeometry relative="1" as="geometry" />
        </mxCell>
        <mxCell id="ako7mKqaWkMYn8Wf8Trb-46" value="Kexts" style="swimlane;html=1;fontStyle=1;align=center;verticalAlign=top;childLayout=stackLayout;horizontal=1;startSize=26;horizontalStack=0;resizeParent=1;resizeLast=0;collapsible=1;marginBottom=0;swimlaneFillColor=#ffffff;rounded=0;shadow=0;comic=0;labelBackgroundColor=none;strokeWidth=1;fillColor=#dae8fc;fontFamily=Verdana;fontSize=13;strokeColor=#6c8ebf;" vertex="1" parent="1">
          <mxGeometry x="540" y="305" width="180" height="290" as="geometry" />
        </mxCell>
        <mxCell id="ako7mKqaWkMYn8Wf8Trb-47" value="+ Lilu.kext" style="text;html=1;strokeColor=none;fillColor=none;align=left;verticalAlign=top;spacingLeft=4;spacingRight=4;whiteSpace=wrap;overflow=hidden;rotatable=0;points=[[0,0.5],[1,0.5]];portConstraint=eastwest;fontSize=13;" vertex="1" parent="ako7mKqaWkMYn8Wf8Trb-46">
          <mxGeometry y="26" width="180" height="22" as="geometry" />
        </mxCell>
        <mxCell id="ako7mKqaWkMYn8Wf8Trb-48" value="+ AppleALC.kext" style="text;html=1;strokeColor=none;fillColor=none;align=left;verticalAlign=top;spacingLeft=4;spacingRight=4;whiteSpace=wrap;overflow=hidden;rotatable=0;points=[[0,0.5],[1,0.5]];portConstraint=eastwest;fontSize=13;" vertex="1" parent="ako7mKqaWkMYn8Wf8Trb-46">
          <mxGeometry y="48" width="180" height="26" as="geometry" />
        </mxCell>
        <mxCell id="ako7mKqaWkMYn8Wf8Trb-49" value="+ VirtualSMC.kext" style="text;html=1;strokeColor=none;fillColor=none;align=left;verticalAlign=top;spacingLeft=4;spacingRight=4;whiteSpace=wrap;overflow=hidden;rotatable=0;points=[[0,0.5],[1,0.5]];portConstraint=eastwest;fontSize=13;" vertex="1" parent="ako7mKqaWkMYn8Wf8Trb-46">
          <mxGeometry y="74" width="180" height="26" as="geometry" />
        </mxCell>
        <mxCell id="ako7mKqaWkMYn8Wf8Trb-50" value="+ LucyRTL8125Ethernet.kext" style="text;html=1;strokeColor=none;fillColor=none;align=left;verticalAlign=top;spacingLeft=4;spacingRight=4;whiteSpace=wrap;overflow=hidden;rotatable=0;points=[[0,0.5],[1,0.5]];portConstraint=eastwest;fontSize=13;" vertex="1" parent="ako7mKqaWkMYn8Wf8Trb-46">
          <mxGeometry y="100" width="180" height="26" as="geometry" />
        </mxCell>
        <mxCell id="ako7mKqaWkMYn8Wf8Trb-51" value="+ SMCProcessor.kext" style="text;html=1;strokeColor=none;fillColor=none;align=left;verticalAlign=top;spacingLeft=4;spacingRight=4;whiteSpace=wrap;overflow=hidden;rotatable=0;points=[[0,0.5],[1,0.5]];portConstraint=eastwest;fontSize=13;" vertex="1" parent="ako7mKqaWkMYn8Wf8Trb-46">
          <mxGeometry y="126" width="180" height="26" as="geometry" />
        </mxCell>
        <mxCell id="ako7mKqaWkMYn8Wf8Trb-53" value="+ SMCSuperIO.kext" style="text;html=1;strokeColor=none;fillColor=none;align=left;verticalAlign=top;spacingLeft=4;spacingRight=4;whiteSpace=wrap;overflow=hidden;rotatable=0;points=[[0,0.5],[1,0.5]];portConstraint=eastwest;fontSize=13;" vertex="1" parent="ako7mKqaWkMYn8Wf8Trb-46">
          <mxGeometry y="152" width="180" height="26" as="geometry" />
        </mxCell>
        <mxCell id="ako7mKqaWkMYn8Wf8Trb-54" value="+ RadeonSensor.kext" style="text;html=1;strokeColor=none;fillColor=none;align=left;verticalAlign=top;spacingLeft=4;spacingRight=4;whiteSpace=wrap;overflow=hidden;rotatable=0;points=[[0,0.5],[1,0.5]];portConstraint=eastwest;fontSize=13;" vertex="1" parent="ako7mKqaWkMYn8Wf8Trb-46">
          <mxGeometry y="178" width="180" height="26" as="geometry" />
        </mxCell>
        <mxCell id="ako7mKqaWkMYn8Wf8Trb-57" value="+ SMCRadeonGPU.kext" style="text;html=1;strokeColor=none;fillColor=none;align=left;verticalAlign=top;spacingLeft=4;spacingRight=4;whiteSpace=wrap;overflow=hidden;rotatable=0;points=[[0,0.5],[1,0.5]];portConstraint=eastwest;fontSize=13;" vertex="1" parent="ako7mKqaWkMYn8Wf8Trb-46">
          <mxGeometry y="204" width="180" height="26" as="geometry" />
        </mxCell>
        <mxCell id="ako7mKqaWkMYn8Wf8Trb-58" value="+ USBMap.kext" style="text;html=1;strokeColor=none;fillColor=none;align=left;verticalAlign=top;spacingLeft=4;spacingRight=4;whiteSpace=wrap;overflow=hidden;rotatable=0;points=[[0,0.5],[1,0.5]];portConstraint=eastwest;fontSize=13;" vertex="1" parent="ako7mKqaWkMYn8Wf8Trb-46">
          <mxGeometry y="230" width="180" height="26" as="geometry" />
        </mxCell>
        <mxCell id="ako7mKqaWkMYn8Wf8Trb-59" value="+ Whatevergreen.kext" style="text;html=1;strokeColor=none;fillColor=none;align=left;verticalAlign=top;spacingLeft=4;spacingRight=4;whiteSpace=wrap;overflow=hidden;rotatable=0;points=[[0,0.5],[1,0.5]];portConstraint=eastwest;fontSize=13;" vertex="1" parent="ako7mKqaWkMYn8Wf8Trb-46">
          <mxGeometry y="256" width="180" height="26" as="geometry" />
        </mxCell>
        <mxCell id="ako7mKqaWkMYn8Wf8Trb-64" style="edgeStyle=orthogonalEdgeStyle;rounded=0;orthogonalLoop=1;jettySize=auto;html=1;exitX=1;exitY=0.5;exitDx=0;exitDy=0;entryX=0;entryY=0.5;entryDx=0;entryDy=0;fontSize=13;" edge="1" parent="1" source="ako7mKqaWkMYn8Wf8Trb-35" target="ako7mKqaWkMYn8Wf8Trb-47">
          <mxGeometry relative="1" as="geometry" />
        </mxCell>
        <mxCell id="ako7mKqaWkMYn8Wf8Trb-66" value="Resources" style="swimlane;html=1;fontStyle=1;align=center;verticalAlign=top;childLayout=stackLayout;horizontal=1;startSize=26;horizontalStack=0;resizeParent=1;resizeLast=0;collapsible=1;marginBottom=0;swimlaneFillColor=#ffffff;rounded=0;shadow=0;comic=0;labelBackgroundColor=none;strokeWidth=1;fillColor=#b0e3e6;fontFamily=Verdana;fontSize=13;strokeColor=#0e8088;" vertex="1" parent="1">
          <mxGeometry x="760" y="305" width="120" height="136" as="geometry" />
        </mxCell>
        <mxCell id="ako7mKqaWkMYn8Wf8Trb-67" value="+ Audio" style="text;html=1;strokeColor=none;fillColor=none;align=left;verticalAlign=top;spacingLeft=4;spacingRight=4;whiteSpace=wrap;overflow=hidden;rotatable=0;points=[[0,0.5],[1,0.5]];portConstraint=eastwest;fontSize=13;" vertex="1" parent="ako7mKqaWkMYn8Wf8Trb-66">
          <mxGeometry y="26" width="120" height="22" as="geometry" />
        </mxCell>
        <mxCell id="ako7mKqaWkMYn8Wf8Trb-68" value="+ Font" style="text;html=1;strokeColor=none;fillColor=none;align=left;verticalAlign=top;spacingLeft=4;spacingRight=4;whiteSpace=wrap;overflow=hidden;rotatable=0;points=[[0,0.5],[1,0.5]];portConstraint=eastwest;fontSize=13;" vertex="1" parent="ako7mKqaWkMYn8Wf8Trb-66">
          <mxGeometry y="48" width="120" height="26" as="geometry" />
        </mxCell>
        <mxCell id="ako7mKqaWkMYn8Wf8Trb-69" value="+ Image" style="text;html=1;strokeColor=none;fillColor=none;align=left;verticalAlign=top;spacingLeft=4;spacingRight=4;whiteSpace=wrap;overflow=hidden;rotatable=0;points=[[0,0.5],[1,0.5]];portConstraint=eastwest;fontSize=13;" vertex="1" parent="ako7mKqaWkMYn8Wf8Trb-66">
          <mxGeometry y="74" width="120" height="26" as="geometry" />
        </mxCell>
        <mxCell id="ako7mKqaWkMYn8Wf8Trb-70" value="+ Label" style="text;html=1;strokeColor=none;fillColor=none;align=left;verticalAlign=top;spacingLeft=4;spacingRight=4;whiteSpace=wrap;overflow=hidden;rotatable=0;points=[[0,0.5],[1,0.5]];portConstraint=eastwest;fontSize=13;" vertex="1" parent="ako7mKqaWkMYn8Wf8Trb-66">
          <mxGeometry y="100" width="120" height="26" as="geometry" />
        </mxCell>
        <mxCell id="ako7mKqaWkMYn8Wf8Trb-76" value="Tools" style="swimlane;html=1;fontStyle=1;align=center;verticalAlign=top;childLayout=stackLayout;horizontal=1;startSize=26;horizontalStack=0;resizeParent=1;resizeLast=0;collapsible=1;marginBottom=0;swimlaneFillColor=#ffffff;rounded=0;shadow=0;comic=0;labelBackgroundColor=none;strokeWidth=1;fillColor=#b1ddf0;fontFamily=Verdana;fontSize=13;strokeColor=#10739e;" vertex="1" parent="1">
          <mxGeometry x="920" y="305" width="120" height="56" as="geometry" />
        </mxCell>
        <mxCell id="ako7mKqaWkMYn8Wf8Trb-77" value="+ CleanNvram.efi" style="text;html=1;strokeColor=none;fillColor=none;align=left;verticalAlign=top;spacingLeft=4;spacingRight=4;whiteSpace=wrap;overflow=hidden;rotatable=0;points=[[0,0.5],[1,0.5]];portConstraint=eastwest;fontSize=13;" vertex="1" parent="ako7mKqaWkMYn8Wf8Trb-76">
          <mxGeometry y="26" width="120" height="22" as="geometry" />
        </mxCell>
        <mxCell id="ako7mKqaWkMYn8Wf8Trb-82" style="edgeStyle=orthogonalEdgeStyle;rounded=0;orthogonalLoop=1;jettySize=auto;html=1;exitX=1;exitY=0.5;exitDx=0;exitDy=0;entryX=0;entryY=0.5;entryDx=0;entryDy=0;fontSize=13;" edge="1" parent="1" source="ako7mKqaWkMYn8Wf8Trb-47" target="ako7mKqaWkMYn8Wf8Trb-67">
          <mxGeometry relative="1" as="geometry" />
        </mxCell>
        <mxCell id="ako7mKqaWkMYn8Wf8Trb-83" style="edgeStyle=orthogonalEdgeStyle;rounded=0;orthogonalLoop=1;jettySize=auto;html=1;exitX=1;exitY=0.5;exitDx=0;exitDy=0;entryX=0;entryY=0.5;entryDx=0;entryDy=0;fontSize=13;" edge="1" parent="1" source="ako7mKqaWkMYn8Wf8Trb-67" target="ako7mKqaWkMYn8Wf8Trb-77">
          <mxGeometry relative="1" as="geometry" />
        </mxCell>
        <mxCell id="ako7mKqaWkMYn8Wf8Trb-90" value="BOOT" style="swimlane;html=1;fontStyle=1;align=center;verticalAlign=top;childLayout=stackLayout;horizontal=1;startSize=26;horizontalStack=0;resizeParent=1;resizeLast=0;collapsible=1;marginBottom=0;swimlaneFillColor=#ffffff;rounded=0;shadow=0;comic=0;labelBackgroundColor=none;strokeWidth=1;fillColor=#e1d5e7;fontFamily=Verdana;fontSize=13;strokeColor=#9673a6;" vertex="1" parent="1">
          <mxGeometry x="60" y="210" width="120" height="56" as="geometry" />
        </mxCell>
        <mxCell id="ako7mKqaWkMYn8Wf8Trb-91" value="+ BOOTx64.efi" style="text;html=1;strokeColor=none;fillColor=none;align=left;verticalAlign=top;spacingLeft=4;spacingRight=4;whiteSpace=wrap;overflow=hidden;rotatable=0;points=[[0,0.5],[1,0.5]];portConstraint=eastwest;fontSize=13;" vertex="1" parent="ako7mKqaWkMYn8Wf8Trb-90">
          <mxGeometry y="26" width="120" height="22" as="geometry" />
        </mxCell>
      </root>
    </mxGraphModel>
  </diagram>
</mxfile>
